<svg enable-background="new 0 0 128 128" viewBox="0 0 128 128" xmlns="http://www.w3.org/2000/svg" xmlns:xlink="http://www.w3.org/1999/xlink"><clipPath id="a"><path d="m117.86 20.98-2.81-8.03-8.03-2.81s-2.64 8.42-9.45 14.76c-6.8 6.34-16.97 11.67-16.97 11.67l10.84 10.84s5.33-10.17 11.67-16.98c6.33-6.82 14.75-9.45 14.75-9.45z"/></clipPath><path d="m85.92 42.08-7.44-7.44-39.36 39.36c-7.97 7.97-30.25 29.11-35.07 49.92l-.05.05c.01 0 .03-.01.04-.01z" fill="#4cd7e7"/><path d="m4.03 124 .05-.05c20.82-4.82 41.95-27.1 49.92-35.07l39.36-39.36-7.44-7.44-81.88 81.88c0 .01-.01.03-.01.04z" fill="#b0fcec"/><path d="m78.47 37.47 12.06 12.06-37.95 37.94c-.46.46-.96.97-1.51 1.51-8.01 8.07-26.16 26.35-44.18 32.11 5.76-18.02 24.04-36.17 32.12-44.18.55-.54 1.05-1.05 1.51-1.51zm0-2.83-39.35 39.36c-7.97 7.97-30.25 29.11-35.07 49.92l-.05.05c.01 0 .03-.01.04-.01 0 .01-.01.03-.01.04l.05-.05c20.82-4.82 41.95-27.1 49.92-35.07l39.36-39.36-7.44-7.44z" fill="#424242" opacity=".2"/><path d="m117.86 20.98-2.81-8.03-8.03-2.81s-2.64 8.42-9.45 14.76c-6.8 6.34-16.97 11.67-16.97 11.67l10.84 10.84s5.33-10.17 11.67-16.98c6.33-6.82 14.75-9.45 14.75-9.45z" fill="#ba5f00"/><g clip-path="url(#a)" fill="none" stroke="#4e342e" stroke-miterlimit="10" stroke-width="1.9925"><path d="m120.82 20.44-24.42-2.81"/><path d="m94.05 24.09c4.96-.05 9.91 1.98 13.42 5.48"/><path d="m82.77 32.07c7.48-.98 15.37 2.35 19.89 8.4"/><path d="m101.05 24.68c.87 3.36 1.73 6.73 2.6 10.09"/><path d="m94.52 33.59c1 2.79 1.55 5.73 1.64 8.69"/></g><path d="m108.22 12.69 5.25 1.84 1.84 5.25c-3 1.23-8.87 4.1-13.69 9.27-4.63 4.97-8.67 11.56-10.66 15.04l-7.06-7.06c3.48-1.99 10.07-6.03 15.04-10.66 5.18-4.81 8.05-10.68 9.28-13.68m-1.2-2.55s-2.64 8.42-9.45 14.76c-6.8 6.34-16.97 11.67-16.97 11.67l10.84 10.84s5.33-10.17 11.67-16.98 14.76-9.45 14.76-9.45l-2.81-8.03z" fill="#424242" opacity=".2"/><ellipse cx="84.04" cy="43.96" fill="#527792" rx="6.1" ry="26.9" transform="matrix(.7071 -.7071 .7071 .7071 -6.4659 72.302)"/><path d="m66.53 26.46c2.52.09 10.44 4.63 20.41 14.6 10.13 10.13 14.65 18.2 14.62 20.39-2.52-.09-10.44-4.63-20.41-14.6-10.13-10.13-14.65-18.2-14.62-20.39m-.08-2.01c-.62 0-1.1.16-1.43.49-2.38 2.38 4.2 12.83 14.7 23.34 9.05 9.05 18.06 15.19 21.91 15.19.62 0 1.1-.16 1.43-.49 2.38-2.38-4.2-12.83-14.7-23.34-9.05-9.05-18.06-15.19-21.91-15.19z" fill="#424242" opacity=".2"/><ellipse cx="115.05" cy="12.95" fill="#527792" rx="4.9" ry="11.67" transform="matrix(.7071 -.7071 .7071 .7071 24.541 85.146)"/><path d="m108.78 6.01c1.64 0 4.95 1.53 8.31 4.89 4.48 4.48 5.31 8.34 4.78 8.87-.04.04-.23.11-.56.11-1.64 0-4.95-1.53-8.31-4.89-1.99-1.99-3.58-4.24-4.38-6.19-.68-1.67-.54-2.55-.41-2.68.06-.04.24-.11.57-.11m0-2.01c-.82 0-1.51.23-1.98.7-1.91 1.91.23 7.16 4.78 11.71 3.42 3.42 7.24 5.48 9.73 5.48.82 0 1.51-.23 1.98-.7 1.91-1.91-.23-7.16-4.78-11.71-3.42-3.42-7.23-5.48-9.73-5.48z" fill="#424242" opacity=".2"/><path d="m75.76 43.46h8.84v8.72h-8.84z" fill="#fcee21" transform="matrix(0 1 -1 0 128 -32.351)"/><path d="m77.62 45.3h5.11v5.04h-5.11z" fill="#ed1c24" transform="matrix(0 1 -1 0 128 -32.351)"/><circle cx="65.52" cy="24.87" fill="#527792" r="5.16"/><circle cx="65.52" cy="24.87" fill="#4cd7e7" r="2.31"/><circle cx="102.88" cy="62.73" fill="#527792" r="5.16"/><circle cx="103.18" cy="62.53" fill="#4cd7e7" r="2.31"/><g fill="#90aabd"><path d="m15 79.75c.58-.44 1.17-.66 1.75-.82.58-.15 1.17-.23 1.75-.23s1.17.07 1.75.22c.58.17 1.17.39 1.75.83-.58.44-1.17.66-1.75.83-.58.15-1.17.23-1.75.22-.58 0-1.17-.07-1.75-.23s-1.17-.38-1.75-.82z"/><path d="m18.5 83.25c-.44-.58-.66-1.17-.82-1.75-.15-.58-.23-1.17-.23-1.75s.07-1.17.22-1.75c.17-.58.39-1.17.83-1.75.44.58.66 1.17.83 1.75.15.58.23 1.17.22 1.75 0 .58-.07 1.17-.23 1.75s-.38 1.17-.82 1.75z"/></g><g fill="#fff"><path d="m38.08 85.83c.58-.44 1.17-.66 1.75-.82.58-.15 1.17-.23 1.75-.23s1.17.07 1.75.22c.58.17 1.17.39 1.75.83-.58.44-1.17.66-1.75.83-.58.15-1.17.23-1.75.22-.58 0-1.17-.07-1.75-.23s-1.16-.38-1.75-.82z"/><path d="m41.58 89.33c-.44-.58-.66-1.17-.82-1.75-.15-.58-.23-1.17-.23-1.75s.07-1.17.22-1.75c.17-.58.39-1.17.83-1.75.44.58.66 1.17.83 1.75.15.58.23 1.17.22 1.75 0 .58-.07 1.17-.23 1.75-.16.59-.38 1.17-.82 1.75z"/></g><g fill="#fff"><path d="m63 56.33c.67-.47 1.33-.58 2-.6.67.02 1.33.12 2 .6-.67.48-1.33.58-2 .6-.67-.02-1.33-.12-2-.6z"/><path d="m65 58.33c-.47-.67-.58-1.33-.6-2 .02-.67.12-1.33.6-2 .48.67.58 1.33.6 2-.02.67-.13 1.34-.6 2z"/></g><g fill="#6a9abd"><path d="m44.67 102c.67-.47 1.33-.58 2-.6.67.02 1.33.12 2 .6-.67.48-1.33.58-2 .6-.67-.02-1.34-.13-2-.6z"/><path d="m46.67 104c-.47-.67-.58-1.33-.6-2 .02-.67.12-1.33.6-2 .48.67.58 1.33.6 2-.02.67-.13 1.33-.6 2z"/></g><g fill="#6a9abd"><path d="m86 28.67c.67-.47 1.33-.58 2-.6.67.02 1.33.12 2 .6-.67.48-1.33.58-2 .6-.67-.02-1.33-.13-2-.6z"/><path d="m88 30.67c-.47-.67-.58-1.33-.6-2 .02-.67.12-1.33.6-2 .48.67.58 1.33.6 2-.02.66-.13 1.33-.6 2z"/></g><g fill="#6a9abd"><path d="m14 91.5c.67-.47 1.33-.58 2-.6.67.02 1.33.12 2 .6-.67.48-1.33.58-2 .6-.67-.02-1.33-.13-2-.6z"/><path d="m16 93.5c-.47-.67-.58-1.33-.6-2 .02-.67.12-1.33.6-2 .48.67.58 1.33.6 2-.02.67-.13 1.33-.6 2z"/></g><g fill="#4cd7e7"><g><path d="m56 94.5c.75-.56 1.5-.85 2.25-1.06.75-.2 1.5-.29 2.25-.29s1.5.09 2.25.29c.75.21 1.5.5 2.25 1.06-.75.56-1.5.85-2.25 1.06-.75.2-1.5.29-2.25.29s-1.5-.09-2.25-.29c-.75-.21-1.5-.5-2.25-1.06z"/><path d="m60.5 99c-.56-.75-.85-1.5-1.06-2.25-.2-.75-.29-1.5-.29-2.25s.09-1.5.29-2.25c.21-.75.5-1.5 1.06-2.25.56.75.85 1.5 1.06 2.25.2.75.29 1.5.29 2.25s-.09 1.5-.29 2.25c-.21.75-.5 1.5-1.06 2.25z"/></g><g><path d="m36.5 63.83c.56-.42 1.11-.62 1.67-.78.56-.15 1.11-.21 1.67-.22.56 0 1.11.07 1.67.21.56.16 1.11.37 1.67.79-.56.42-1.11.63-1.67.79-.56.15-1.11.21-1.67.21s-1.11-.07-1.67-.22-1.11-.36-1.67-.78z"/><path d="m39.83 67.17c-.42-.56-.62-1.11-.78-1.67-.15-.56-.21-1.11-.22-1.67 0-.56.07-1.11.21-1.67.16-.56.37-1.11.79-1.67.42.56.63 1.11.79 1.67.15.56.21 1.11.21 1.67s-.07 1.11-.22 1.67-.36 1.11-.78 1.67z"/></g><g><path d="m89 19.83c.56-.42 1.11-.62 1.67-.78.56-.15 1.11-.21 1.67-.22.56 0 1.11.07 1.67.21.56.16 1.11.37 1.67.79-.56.42-1.11.63-1.67.79-.56.15-1.11.21-1.67.21s-1.11-.07-1.67-.22-1.11-.36-1.67-.78z"/><path d="m92.33 23.17c-.42-.56-.62-1.11-.78-1.67-.15-.56-.21-1.11-.22-1.67 0-.56.07-1.11.21-1.67.16-.56.37-1.11.79-1.67.42.56.63 1.11.79 1.67.15.56.21 1.11.21 1.67s-.07 1.11-.22 1.67-.36 1.11-.78 1.67z"/></g><g><path d="m34 110.67c.56-.42 1.11-.62 1.67-.78.56-.15 1.11-.21 1.67-.22.56 0 1.11.07 1.67.21.56.16 1.11.37 1.67.79-.56.42-1.11.63-1.67.79-.56.15-1.11.21-1.67.21s-1.11-.07-1.67-.22c-.56-.16-1.11-.37-1.67-.78z"/><path d="m37.33 114c-.42-.56-.62-1.11-.78-1.67-.15-.56-.21-1.11-.22-1.67 0-.56.07-1.11.21-1.67.16-.56.37-1.11.79-1.67.42.56.63 1.11.79 1.67.15.56.21 1.11.21 1.67s-.07 1.11-.22 1.67-.36 1.11-.78 1.67z"/></g><g><path d="m26.5 80c.67-.47 1.33-.58 2-.6.67.02 1.33.12 2 .6-.67.48-1.33.58-2 .6-.67-.02-1.33-.13-2-.6z"/><path d="m28.5 82c-.47-.67-.58-1.33-.6-2 .02-.67.12-1.33.6-2 .48.67.58 1.33.6 2-.02.67-.13 1.33-.6 2z"/></g><g><path d="m105.5 36c.67-.47 1.33-.58 2-.6.67.02 1.33.12 2 .6-.67.48-1.33.58-2 .6-.67-.02-1.33-.13-2-.6z"/><path d="m107.5 38c-.47-.67-.58-1.33-.6-2 .02-.67.12-1.33.6-2 .48.67.58 1.33.6 2-.02.67-.13 1.33-.6 2z"/></g></g></svg>